<svg xmlns="http://www.w3.org/2000/svg" width="400" viewBox="0 0 300 90" height="120" version="1.0"><defs><clipPath id="a"><path d="M1.5 4.074H105v67.5H1.5Zm0 0"/></clipPath></defs><path fill="#fff" d="M-30-9h360V99H-30z"/><path fill="#fff" d="M-30-9h360V99H-30z"/><g clip-path="url(#a)"><path fill="#ff7925" d="M37.516 7.227C17.41 14.25 2.636 32.992 1.742 55.562a53.54 53.54 0 0 0 1.88 16.352l.171-.055a51.766 51.766 0 0 1-1.809-16.132c.055-1.22.153-2.422.29-3.618 4.12.664 8.316 1.086 12.566 1.27a69.942 69.942 0 0 0 2.578 13.848l.125-.04a67.21 67.21 0 0 1-2.527-13.796 110.404 110.404 0 0 0 17.64-.684 127.123 127.123 0 0 0 2.352 8.543l.07-.023a124.468 124.468 0 0 1-2.344-8.532 108.592 108.592 0 0 0 21.22-4.73l3.573 10.148-3.406-10.207a107.916 107.916 0 0 0 18.922-8.394 119.274 119.274 0 0 1 3.14 7.75l.07-.028a126.172 126.172 0 0 0-3.14-7.761 108.352 108.352 0 0 0 13.692-9.168 67.637 67.637 0 0 1 5.71 11.406l.133-.043a69.92 69.92 0 0 0-5.71-11.469c2.917-2.3 5.71-4.742 8.374-7.32a51.828 51.828 0 0 1 9.149 14.773l.176-.058C96.984 18.762 78.867 5.152 57.234 4.297A53.368 53.368 0 0 0 41.5 6.007c-.43.102-.852.212-1.273.333a8.801 8.801 0 0 0-.961.289.423.423 0 0 1-.075.031c-.222.074-.445.145-.668.223-.043.015-.086.035-.128.05-.293.094-.59.192-.88.294Zm1.777.328c.125-.04.254-.082.383-.121l2.156 6.12a72.878 72.878 0 0 1-9.602 2.387c1.598-4.273 4-7.171 7.063-8.386Zm1.23-.38c.079-.019.16-.038.239-.062 2.21-.465 4.71-.136 7.468 1.094.977.434 1.958.977 2.938 1.61a72.591 72.591 0 0 1-8.219 3.367c-.125.043-.254.082-.379.125l-2.043-6.133Zm-4.894 1.86c-1.645 1.68-2.977 4.043-3.953 7-2.04.348-4.082.602-6.121.77 2.898-3.293 6.297-5.926 10.074-7.77Zm8.926-2.734c2.925-.414 5.988-.414 9.16.043.976.136 1.945.324 2.906.543a71.386 71.386 0 0 1-4.937 2.68A23.948 23.948 0 0 0 48 7.433c-1.2-.543-2.348-.918-3.445-1.133Zm-14.196 4.992a33.697 33.697 0 0 0-5.789 5.59c-.968.066-1.933.113-2.898.14a54.146 54.146 0 0 1 8.687-5.73ZM50.707 5.27c2.207-.2 4.45-.27 6.719-.192a52.46 52.46 0 0 1 1.933.106 78.71 78.71 0 0 1-1.906 1.207 36.05 36.05 0 0 0-3.953-.825 32.917 32.917 0 0 0-2.793-.296ZM20.828 17.719a66.357 66.357 0 0 0 3.176-.121c-1.984 2.55-3.7 5.445-5.098 8.625a78.546 78.546 0 0 1-5.851-.43 54.086 54.086 0 0 1 7.773-8.074ZM60.465 5.273c4.43.399 8.68 1.332 12.707 2.735a81.053 81.053 0 0 1-4.422 3.379c-3.313-2.075-6.8-3.688-10.402-4.746a78.416 78.416 0 0 0 2.117-1.368Zm-35.543 12.27h.004a72.677 72.677 0 0 0 6.52-.777c-.79 2.625-1.317 5.683-1.551 9.117a80.7 80.7 0 0 1-10.438.36c1.504-3.231 3.34-6.15 5.465-8.7ZM57.574 7.121c3.727.961 7.34 2.508 10.766 4.559a81.061 81.061 0 0 1-8.758 5.34c-2.387-2.825-4.832-5.196-7.277-7a72.137 72.137 0 0 0 5.27-2.899ZM31.97 16.676a73.307 73.307 0 0 0 10.086-2.48l3.066 8.702a81.7 81.7 0 0 1-7.598 1.872c-2.457.48-4.91.84-7.351 1.09.297-3.489.91-6.57 1.797-9.184Zm19.86-6.426c2.523 1.727 5.046 4.066 7.51 6.895a79.78 79.78 0 0 1-13.628 5.574l-2.93-8.766c.125-.043.25-.082.375-.121a73.988 73.988 0 0 0 8.672-3.582ZM12.792 26.133a81.67 81.67 0 0 0 5.973.406c-1.625 3.77-2.805 7.938-3.485 12.422a91.813 91.813 0 0 1-9.351-.98 52.659 52.659 0 0 1 6.863-11.848ZM73.488 8.117a52.607 52.607 0 0 1 10.887 5.356c-2 1.91-4.09 3.734-6.266 5.468-2.836-2.863-5.898-5.359-9.132-7.41a80.808 80.808 0 0 0 4.511-3.414Zm-54.18 18.438c3.493.086 7.02-.043 10.567-.414-.238 3.73-.14 7.894.332 12.422-4.91.53-9.793.66-14.621.417.742-4.5 2.008-8.667 3.723-12.425ZM68.57 11.816c3.301 2 6.422 4.465 9.309 7.309a92.148 92.148 0 0 1-11.344 7.68c-2.172-3.575-4.465-6.82-6.812-9.621a81.892 81.892 0 0 0 8.847-5.368ZM30.152 26.11a83.865 83.865 0 0 0 7.133-1.07 84.036 84.036 0 0 0 7.906-1.953l4.016 11.406a92.222 92.222 0 0 1-6.426 1.84 93.683 93.683 0 0 1-12.43 2.215c-.437-4.547-.496-8.719-.199-12.438Zm29.332-8.8c2.391 2.761 4.72 5.992 6.926 9.566a92.076 92.076 0 0 1-16.812 7.488L45.773 22.91a82.158 82.158 0 0 0 13.711-5.601ZM5.742 38.449c3.125.465 6.29.781 9.477.93-.535 3.726-.727 7.672-.528 11.785.032.629.075 1.254.121 1.879-4.226-.207-8.398-.66-12.496-1.352A52.198 52.198 0 0 1 5.742 38.45Zm78.93-24.789a52.64 52.64 0 0 1 10.266 8.805 108.075 108.075 0 0 1-8.25 7.332c-2.465-3.918-5.278-7.504-8.368-10.652a93.61 93.61 0 0 0 6.352-5.485ZM15.52 39.387c4.859.21 9.777.047 14.718-.516.23 2.152.54 4.383.942 6.688.398 2.3.87 4.601 1.41 6.886a107.982 107.982 0 0 1-17.598.605c-.039-.57-.078-1.14-.101-1.71-.188-4.176.039-8.176.629-11.953Zm62.57-20.055c3.129 3.113 5.976 6.672 8.46 10.57a106.614 106.614 0 0 1-13.585 9.243c-1.934-4.333-4.055-8.415-6.309-12.141a93.575 93.575 0 0 0 11.434-7.672ZM30.379 38.855a95.446 95.446 0 0 0 18.902-4.148l4.578 13.004a106.15 106.15 0 0 1-21.187 4.723c-.52-2.22-.969-4.446-1.352-6.676a99.18 99.18 0 0 1-.941-6.903Zm36.152-11.78c2.278 3.702 4.418 7.78 6.364 12.109a105.644 105.644 0 0 1-18.86 8.468l-4.363-13.074a94.422 94.422 0 0 0 16.86-7.504Zm0 0"/></g><path d="M54.855 31.719H39.777V73h-6.265V31.719H18.387v-5.297h36.468ZM96.652 50.61v17.874c-2.344 1.688-4.844 2.95-7.5 3.782-2.648.832-5.555 1.25-8.719 1.25-3.75 0-7.132-.578-10.14-1.735-3.012-1.156-5.586-2.781-7.719-4.875-2.137-2.093-3.777-4.597-4.922-7.515-1.148-2.926-1.719-6.145-1.719-9.657 0-3.55.555-6.789 1.672-9.718 1.114-2.926 2.696-5.43 4.75-7.516 2.063-2.094 4.567-3.71 7.516-4.86 2.945-1.156 6.238-1.734 9.875-1.734 1.844 0 3.555.137 5.14.407 1.583.273 3.047.664 4.391 1.171a20.812 20.812 0 0 1 3.734 1.86 22.517 22.517 0 0 1 3.22 2.453l-1.798 2.86c-.28.429-.648.702-1.093.827-.438.118-.93.012-1.47-.312-.523-.3-1.12-.664-1.796-1.094-.668-.437-1.484-.851-2.453-1.25-.961-.406-2.094-.75-3.406-1.031-1.313-.281-2.868-.422-4.657-.422-2.625 0-5 .43-7.125 1.281-2.125.856-3.937 2.078-5.437 3.672-1.492 1.594-2.637 3.524-3.438 5.781-.804 2.262-1.203 4.805-1.203 7.625 0 2.93.414 5.547 1.25 7.86.844 2.304 2.035 4.261 3.578 5.875 1.551 1.605 3.43 2.836 5.641 3.687 2.207.844 4.687 1.266 7.437 1.266 2.165 0 4.086-.242 5.766-.734a24.967 24.967 0 0 0 4.938-2.032V55.422h-7.25c-.418 0-.75-.117-1-.36a1.179 1.179 0 0 1-.36-.874v-3.579Zm0 0" fill="#ff7925"/><path d="M127.736 28.262h-5.688v15.969h-3.5V28.262h-5.687v-2.875h14.875ZM143.2 37.122l-2.282-6.282c-.117-.27-.234-.597-.359-.984a20.748 20.748 0 0 1-.36-1.234c-.117.437-.234.855-.359 1.25-.117.386-.23.718-.344 1l-2.28 6.25Zm6.203 7.109h-2.719c-.305 0-.555-.07-.75-.219a1.451 1.451 0 0 1-.422-.578l-1.406-3.844h-7.813l-1.406 3.844c-.062.2-.2.383-.406.547-.2.168-.445.25-.735.25h-2.734l7.406-18.844h3.578ZM165.438 41.34v2.891h-11.047V25.387h3.516V41.34ZM174.492 28.184v5.219h6.594v2.703h-6.594v5.328h8.375v2.797h-11.89V25.387h11.89v2.797ZM204.899 25.387v18.844h-1.797c-.281 0-.516-.047-.703-.14a1.57 1.57 0 0 1-.532-.454l-9.843-12.562c.05.574.078 1.101.078 1.578V44.23h-3.094V25.387h1.844c.144 0 .27.012.375.032.113.011.21.039.297.078.082.03.16.086.234.156.082.074.172.172.266.297l9.875 12.61c-.024-.302-.043-.599-.063-.891-.023-.301-.031-.579-.031-.829V25.387ZM225.305 28.262h-5.687v15.969h-3.5V28.262h-5.688v-2.875h14.875Zm0 0" fill="#3b3a3a"/><path d="M246.37 34.778v7.625a9.604 9.604 0 0 1-3.048 1.547c-1.086.32-2.242.484-3.468.484-1.543 0-2.938-.234-4.188-.703-1.242-.477-2.305-1.145-3.187-2a8.677 8.677 0 0 1-2.047-3.047c-.47-1.187-.703-2.476-.703-3.875 0-1.414.226-2.71.687-3.89.457-1.188 1.11-2.204 1.953-3.047.852-.852 1.879-1.516 3.078-1.985 1.207-.468 2.567-.703 4.078-.703.758 0 1.473.063 2.141.188a9.778 9.778 0 0 1 1.844.5 8.07 8.07 0 0 1 1.562.765c.469.305.899.637 1.297 1l-1.015 1.594c-.157.25-.36.406-.61.469-.25.054-.523-.008-.812-.188a63.51 63.51 0 0 1-.875-.5 5.086 5.086 0 0 0-.953-.422 7.222 7.222 0 0 0-1.188-.296 8.305 8.305 0 0 0-1.516-.125c-.93 0-1.765.156-2.515.468-.75.313-1.39.762-1.922 1.344-.531.574-.945 1.273-1.234 2.094-.282.812-.422 1.726-.422 2.734 0 1.074.148 2.04.453 2.89.312.845.75 1.563 1.312 2.157a5.672 5.672 0 0 0 2.016 1.344c.789.304 1.676.453 2.656.453.695 0 1.317-.07 1.86-.219a8.298 8.298 0 0 0 1.609-.61V37.42h-2.375c-.23 0-.406-.063-.531-.188a.636.636 0 0 1-.188-.469v-1.984ZM258.507 34.356c.656 0 1.226-.082 1.719-.25.488-.164.89-.395 1.203-.687.32-.29.562-.633.718-1.032.157-.394.235-.832.235-1.312 0-.957-.32-1.692-.953-2.203-.625-.508-1.586-.766-2.875-.766h-2.235v6.25Zm9.015 9.875h-3.171c-.594 0-1.028-.234-1.297-.703l-3.97-6.031c-.148-.227-.308-.391-.483-.485-.18-.093-.438-.14-.782-.14h-1.5v7.359h-3.515V25.387h5.75c1.28 0 2.379.137 3.297.407.914.261 1.664.632 2.25 1.109a4.472 4.472 0 0 1 1.296 1.719c.282.656.422 1.386.422 2.187a5.64 5.64 0 0 1-.281 1.797 5.424 5.424 0 0 1-.812 1.547c-.356.46-.793.86-1.313 1.203a6.769 6.769 0 0 1-1.75.828c.219.125.422.277.61.453.195.18.374.39.53.64ZM290.576 34.81c0 1.386-.231 2.667-.688 3.843a8.94 8.94 0 0 1-1.922 3.062 8.76 8.76 0 0 1-3.015 2c-1.18.48-2.481.72-3.907.72-1.43 0-2.73-.24-3.906-.72a8.91 8.91 0 0 1-3.016-2 9.036 9.036 0 0 1-1.937-3.062c-.461-1.176-.688-2.457-.688-3.844 0-1.383.227-2.664.688-3.844a8.93 8.93 0 0 1 1.937-3.046 8.891 8.891 0 0 1 3.016-2.016c1.176-.477 2.477-.719 3.906-.719.957 0 1.852.11 2.688.328a9.433 9.433 0 0 1 2.328.938 8.333 8.333 0 0 1 1.89 1.484 9.05 9.05 0 0 1 2.313 4.25c.207.836.313 1.711.313 2.625Zm-3.579 0c0-1.032-.14-1.958-.421-2.782-.274-.82-.668-1.52-1.188-2.094a5.089 5.089 0 0 0-1.875-1.312c-.73-.301-1.555-.453-2.469-.453-.93 0-1.758.152-2.484.453a5.22 5.22 0 0 0-1.875 1.312c-.524.574-.922 1.274-1.203 2.094-.274.824-.406 1.75-.406 2.781 0 1.031.132 1.961.406 2.781.281.825.68 1.524 1.203 2.094.52.563 1.144 1 1.875 1.313.726.304 1.555.453 2.484.453.914 0 1.739-.149 2.469-.453a5.278 5.278 0 0 0 1.875-1.313c.52-.57.914-1.27 1.188-2.094.28-.82.421-1.75.421-2.78Zm0 0" fill="#ff7925"/><path d="M121.082 67.702a2.766 2.766 0 0 0-1.125-1.172c-.469-.258-1.016-.39-1.64-.39-.68 0-1.29.156-1.829.468a3.2 3.2 0 0 0-1.25 1.297c-.304.563-.453 1.215-.453 1.953 0 .75.149 1.414.453 1.985.301.562.719 1 1.25 1.312.54.305 1.149.453 1.828.453.926 0 1.676-.254 2.25-.765.57-.52.922-1.22 1.047-2.094h-3.875v-1.36h5.688v1.329a4.97 4.97 0 0 1-.86 2.218 5.175 5.175 0 0 1-1.797 1.61c-.73.398-1.546.593-2.453.593-.968 0-1.855-.222-2.656-.671a5.061 5.061 0 0 1-1.906-1.891c-.469-.8-.703-1.707-.703-2.719 0-1 .234-1.898.703-2.703a4.993 4.993 0 0 1 1.906-1.875 5.321 5.321 0 0 1 2.656-.687c1.102 0 2.082.273 2.938.812.851.543 1.473 1.309 1.86 2.297ZM132.592 75.046l-2.375-4.125h-1.281v4.125h-1.703V64.733h3.562c.79 0 1.461.14 2.016.422.55.273.96.64 1.234 1.11.27.46.406.976.406 1.546 0 .68-.199 1.293-.593 1.844-.387.543-.985.914-1.797 1.11l2.547 4.28Zm-3.656-5.485h1.86c.632 0 1.113-.156 1.437-.468.32-.313.484-.739.484-1.282 0-.53-.164-.945-.484-1.25-.313-.3-.793-.453-1.438-.453h-1.86ZM143.463 75.155a5.39 5.39 0 0 1-2.656-.672 5.061 5.061 0 0 1-1.906-1.89c-.469-.813-.703-1.723-.703-2.735 0-1 .234-1.898.703-2.703a4.993 4.993 0 0 1 1.906-1.875 5.321 5.321 0 0 1 2.656-.687c.97 0 1.852.23 2.657.687a4.98 4.98 0 0 1 1.922 1.875c.468.805.703 1.703.703 2.703 0 1.012-.235 1.922-.703 2.735a5.047 5.047 0 0 1-1.922 1.89 5.348 5.348 0 0 1-2.657.672Zm0-1.469c.688 0 1.297-.156 1.829-.468a3.16 3.16 0 0 0 1.25-1.329c.3-.582.453-1.257.453-2.03 0-.759-.153-1.427-.453-2a3.098 3.098 0 0 0-1.25-1.313c-.532-.313-1.141-.47-1.829-.47-.68 0-1.289.157-1.828.47-.53.304-.949.742-1.25 1.312-.304.574-.453 1.242-.453 2 0 .774.149 1.45.453 2.031.301.575.72 1.016 1.25 1.329.54.312 1.149.468 1.828.468ZM165.98 64.733l-3.062 10.313h-1.906l-2.172-7.813-2.297 7.813-1.906.015-2.922-10.328h1.797l2.14 8.39 2.313-8.39h1.906l2.14 8.36 2.157-8.36ZM176.187 64.733v1.375h-2.75v8.938h-1.687v-8.938h-2.766v-1.375ZM188.269 64.733v10.313h-1.688V70.53h-4.844v4.516h-1.703V64.733h1.703v4.422h4.844v-4.422ZM202.06 75.155c-.7 0-1.324-.117-1.875-.36-.555-.25-.992-.593-1.313-1.03-.312-.446-.468-.97-.468-1.563h1.812c.04.437.219.805.531 1.094.313.28.75.422 1.313.422.582 0 1.035-.141 1.36-.422.331-.282.5-.64.5-1.078 0-.352-.106-.633-.313-.844-.2-.219-.45-.383-.75-.5a11.75 11.75 0 0 0-1.266-.406 12.545 12.545 0 0 1-1.64-.532 2.811 2.811 0 0 1-1.079-.86c-.293-.382-.437-.898-.437-1.546 0-.594.144-1.11.437-1.547.301-.445.72-.789 1.25-1.031.54-.238 1.16-.36 1.86-.36 1 0 1.816.25 2.453.75.644.5 1 1.188 1.062 2.063h-1.875c-.023-.375-.199-.695-.53-.969-.325-.27-.75-.406-1.282-.406-.492 0-.89.125-1.203.375-.305.25-.453.61-.453 1.078 0 .313.093.574.28.781.196.2.442.36.735.485.301.117.711.242 1.235.375.675.187 1.226.375 1.656.562.437.188.804.48 1.11.875.3.387.452.907.452 1.563 0 .523-.14 1.015-.422 1.484-.28.469-.695.844-1.234 1.125-.543.281-1.18.422-1.906.422ZM211.469 64.733v10.313h-1.703V64.733ZM226.709 64.733v10.313h-1.703v-7.063l-3.141 7.063h-1.172l-3.156-7.063v7.063h-1.703V64.733h1.828l3.625 8.094 3.61-8.094ZM238.29 67.796a3.14 3.14 0 0 1-.376 1.5c-.25.46-.648.836-1.187 1.125-.543.293-1.243.437-2.094.437h-1.86v4.188h-1.703V64.733h3.563c.789 0 1.46.137 2.015.406.551.274.961.641 1.235 1.11.27.46.406.976.406 1.547Zm-3.657 1.687c.644 0 1.125-.144 1.437-.437.32-.29.485-.707.485-1.25 0-1.125-.64-1.688-1.922-1.688h-1.86v3.375ZM243.752 73.686h3.485v1.36h-5.188V64.733h1.703ZM252.49 64.733v10.313h-1.703V64.733ZM262.934 64.733v1.375h-4.375v3.047h3.406v1.375h-3.406v4.516h-1.704V64.733ZM268.35 64.733v10.313h-1.703V64.733ZM274.418 66.093v3.03h3.563V70.5h-3.563v3.172h4v1.375h-5.703V64.718h5.703v1.375ZM286.016 64.733c1.093 0 2.05.215 2.875.64a4.467 4.467 0 0 1 1.921 1.813c.446.782.672 1.696.672 2.735 0 1.054-.226 1.965-.672 2.734a4.467 4.467 0 0 1-1.921 1.781c-.825.407-1.782.61-2.875.61h-3.375V64.733Zm0 8.938c1.207 0 2.128-.328 2.765-.985.645-.656.969-1.578.969-2.765 0-1.196-.324-2.13-.969-2.797-.637-.676-1.558-1.016-2.765-1.016h-1.672v7.563Zm0 0" fill="#3b3a3a"/><path fill="none" d="M110.945 55.113h182.25" stroke="#3b3a3a" stroke-width="1.5"/><path stroke-linecap="round" fill="#3b3a3a" stroke-linejoin="round" d="m297.32 55.113-2.25-2.25-2.25 2.25 2.25 2.25Zm0 0" stroke="#3b3a3a" stroke-width="1.5"/></svg>